<svg width="30" height="30" xmlns="http://www.w3.org/2000/svg"><g fill="none" fill-rule="evenodd"><circle fill="#FF9C44" cx="15" cy="15" r="15"/><path d="M15 15.035a3.593 3.593 0 1 0-3.735-3.59A3.662 3.662 0 0 0 15 15.035z" fill="#FFF"/><path d="M15 9.68a1.769 1.769 0 1 1-1.84 1.765A1.804 1.804 0 0 1 15 9.68z" fill="#FF9C44"/><path d="M17.735 15.315a5.1 5.1 0 0 1-5.47 0c-.78-.585-1.36-.245-1.575.16-.365.71.05 1.055.99 1.63a6.46 6.46 0 0 0 2.61.75l-.595.57c-.835.8-1.64 1.575-2.2 2.115a.8.8 0 0 0 0 1.165l.1.095c.342.32.873.32 1.215 0l2.2-2.115c.835.805 1.64 1.58 2.2 2.115.342.32.873.32 1.215 0l.1-.095a.8.8 0 0 0 0-1.165l-2.2-2.115-.6-.575a6.4 6.4 0 0 0 2.595-.745c.94-.575 1.355-.92.99-1.63-.215-.405-.8-.745-1.575-.16z" fill="#FFF"/></g></svg>