<svg width="30" height="30" xmlns="http://www.w3.org/2000/svg"><g fill="none" fill-rule="evenodd"><circle fill="#1DA0F3" cx="15" cy="15" r="15"/><path d="M22 11.301a5.16 5.16 0 0 1-1.531.438c.55-.344.972-.889 1.172-1.536a5.248 5.248 0 0 1-1.695.675A2.611 2.611 0 0 0 18 10c-1.473 0-2.667 1.244-2.667 2.777 0 .218.024.43.07.633-2.217-.116-4.182-1.222-5.497-2.902-.23.41-.36.887-.36 1.396 0 .964.47 1.814 1.185 2.312a2.586 2.586 0 0 1-1.208-.349v.035c0 1.345.92 2.468 2.14 2.724a2.6 2.6 0 0 1-.704.097 2.46 2.46 0 0 1-.502-.051c.34 1.104 1.324 1.907 2.491 1.929A5.216 5.216 0 0 1 9 19.751 7.321 7.321 0 0 0 13.088 21c4.906 0 7.587-4.233 7.587-7.904l-.009-.36c.524-.389.977-.878 1.334-1.435" fill="#FFF"/></g></svg>