<?xml version="1.0" encoding="UTF-8"?>
<svg width="21px" height="21px" viewBox="0 0 21 21" version="1.1" xmlns="http://www.w3.org/2000/svg" xmlns:xlink="http://www.w3.org/1999/xlink">
    <!-- Generator: Sketch 48.2 (47327) - http://www.bohemiancoding.com/sketch -->
    <title>Group</title>
    <desc>Created with Sketch.</desc>
    <defs></defs>
    <g id="icon-/-man" stroke="none" stroke-width="1" fill="none" fill-rule="evenodd" transform="translate(-13.000000, -8.000000)">
        <g id="Group" transform="translate(11.000000, 4.000000)">
            <circle id="Oval" stroke="#4A4542" stroke-width="2" transform="translate(10.343146, 16.656854) rotate(-45.000000) translate(-10.343146, -16.656854) " cx="10.3431458" cy="16.6568542" r="7"></circle>
            <path d="M17.4748737,9.90380592 L17.4748737,4.31801948 C17.4748737,3.76573473 17.922589,3.31801948 18.4748737,3.31801948 C19.0271585,3.31801948 19.4748737,3.76573473 19.4748737,4.31801948 L19.4748737,9.90380592 L22.5961941,6.78248558 C22.9867184,6.39196129 23.6198833,6.39196129 24.0104076,6.78248558 C24.4009319,7.17300987 24.4009319,7.80617485 24.0104076,8.19669914 L19.1441228,13.062984 C19.0804765,13.1266302 19.0075032,13.1752648 18.9296026,13.2088876 C18.7931817,13.2786608 18.6386241,13.3180195 18.4748737,13.3180195 C18.3101033,13.3180195 18.1546404,13.2781689 18.0175974,13.2075801 C17.9386996,13.1731118 17.8667637,13.124123 17.8056247,13.062984 L12.9393398,8.19669914 C12.5488155,7.80617485 12.5488155,7.17300987 12.9393398,6.78248558 C13.3298641,6.39196129 13.9630291,6.39196129 14.3535534,6.78248558 L17.4748737,9.90380592 Z" id="Combined-Shape" fill="#4A4542" transform="translate(18.474874, 8.318019) rotate(-495.000000) translate(-18.474874, -8.318019) "></path>
        </g>
    </g>
</svg>